<?xml version="1.0" standalone="no"?>
<!DOCTYPE svg PUBLIC "-//W3C//DTD SVG 20010904//EN"
 "http://www.w3.org/TR/2001/REC-SVG-20010904/DTD/svg10.dtd">
<svg version="1.0" xmlns="http://www.w3.org/2000/svg"
 width="270.000000pt" height="270.000000pt" viewBox="0 0 270.000000 270.000000"
 preserveAspectRatio="xMidYMid meet">
<metadata>
Created by potrace 1.14, written by Peter Selinger 2001-2017
</metadata>
<g transform="translate(0.000000,270.000000) scale(0.100000,-0.100000)"
fill="#000000" stroke="none">
<path d="M185 2687 c-87 -34 -151 -101 -174 -182 -9 -30 -11 -339 -9 -1175 3
-1105 4 -1136 23 -1175 25 -50 80 -105 130 -130 39 -20 67 -20 1195 -20 1128
0 1156 0 1195 20 50 25 105 80 130 130 20 39 20 67 20 1195 0 1128 0 1156 -20
1195 -25 50 -80 105 -130 130 -39 20 -68 20 -1185 22 -860 1 -1153 -1 -1175
-10z m685 -668 c101 -12 162 -37 213 -87 54 -51 86 -120 97 -204 17 -136 -21
-255 -104 -324 l-45 -37 47 -22 c59 -28 108 -77 135 -135 31 -65 30 -240 -1
-320 -38 -97 -100 -155 -207 -195 -45 -17 -89 -19 -462 -23 l-413 -3 0 674 c0
370 3 677 7 680 11 11 642 8 733 -4z m1330 0 c179 -22 273 -102 306 -260 30
-141 1 -254 -86 -340 l-57 -56 31 -11 c60 -22 114 -71 143 -130 26 -52 28 -66
27 -167 0 -90 -5 -121 -24 -169 -43 -113 -136 -183 -271 -206 -41 -7 -198 -10
-434 -8 l-370 3 -3 665 c-1 366 0 671 3 678 6 16 609 17 735 1z"/>
<path d="M360 1650 l0 -200 238 0 c227 0 240 1 282 23 70 34 91 81 88 187 -4
100 -25 141 -92 171 -36 16 -69 19 -278 19 l-238 0 0 -200z"/>
<path d="M360 1060 l0 -221 258 3 c238 3 260 5 297 24 53 27 84 84 91 166 7
76 -7 136 -43 179 -50 59 -72 63 -350 67 l-253 4 0 -222z"/>
<path d="M1690 1650 l0 -200 238 0 c209 0 242 3 278 19 76 34 110 122 93 233
-11 65 -33 97 -89 126 -42 21 -55 22 -282 22 l-238 0 0 -200z"/>
<path d="M1690 1061 l0 -221 243 0 c275 0 319 8 361 64 62 81 61 233 -1 307
-50 59 -72 63 -350 67 l-253 4 0 -221z"/>
</g>
</svg>
